<svg width="933" height="354" viewBox="0 0 933 354" fill="none" xmlns="http://www.w3.org/2000/svg">
<path fill-rule="evenodd" clip-rule="evenodd" d="M459.375 144.53V0.337891H315.183L367.954 53.1091H406.604V91.7589L459.375 144.53Z" fill="#0A2647"/>
<path fill-rule="evenodd" clip-rule="evenodd" d="M473.263 144.53V0.337891H617.455L564.684 53.1091H526.034V91.7589L473.263 144.53Z" fill="#0A2647"/>
<path d="M25.3269 280.53V218.92H3.16075V204.711H63.6346V218.92H41.5821V280.53H25.3269ZM116.837 280.53L101.946 253.363H90.1238V280.53H73.9823V204.711H109.448C125.249 204.711 134.911 215.055 134.911 229.15C134.911 242.564 126.499 249.725 118.315 251.657L135.366 280.53H116.837ZM118.428 229.037C118.428 222.671 113.54 218.579 107.061 218.579H90.1238V239.494H107.061C113.54 239.494 118.428 235.402 118.428 229.037ZM147.026 250.293V204.711H163.395V249.725C163.395 260.297 169.192 267.572 181.014 267.572C192.609 267.572 198.406 260.297 198.406 249.725V204.711H214.775V250.18C214.775 269.049 203.976 281.894 181.014 281.894C157.825 281.894 147.026 268.936 147.026 250.293ZM224.498 269.845L233.365 257.568C238.707 263.138 247.005 267.799 257.463 267.799C266.33 267.799 270.649 263.593 270.649 259.274C270.649 253.59 264.056 251.657 255.303 249.611C242.913 246.77 226.999 243.359 226.999 226.422C226.999 213.804 237.911 203.574 255.758 203.574C267.807 203.574 277.811 207.211 285.313 214.145L276.333 225.967C270.194 220.284 262.01 217.669 254.621 217.669C247.346 217.669 243.481 220.852 243.481 225.399C243.481 230.514 249.847 232.106 258.6 234.152C271.104 236.994 287.018 240.745 287.018 257.568C287.018 271.436 277.129 281.894 256.667 281.894C242.117 281.894 231.659 277.006 224.498 269.845ZM314.615 280.53V218.92H292.449V204.711H352.922V218.92H330.87V280.53H314.615ZM363.27 280.53V204.711H416.924V218.579H379.412V235.061H416.128V248.929H379.412V266.549H416.924V280.53H363.27ZM429.542 280.53V204.711H459.438C483.196 204.711 499.678 219.829 499.678 242.677C499.678 265.525 483.196 280.53 459.438 280.53H429.542ZM445.684 266.321H459.438C474.443 266.321 483.196 255.522 483.196 242.677C483.196 229.264 475.011 218.92 459.438 218.92H445.684V266.321ZM525.864 280.53V218.92H503.697V204.711H564.171V218.92H542.119V280.53H525.864ZM574.519 280.53V204.711H628.172V218.579H590.661V235.061H627.377V248.929H590.661V266.549H628.172V280.53H574.519ZM676.939 281.894C654.773 281.894 637.154 265.98 637.154 242.677C637.154 219.374 654.773 203.46 676.939 203.46C694.217 203.46 703.879 212.554 709.222 221.989L695.354 228.809C692.171 222.671 685.351 217.783 676.939 217.783C663.753 217.783 653.75 228.355 653.75 242.677C653.75 257 663.753 267.572 676.939 267.572C685.351 267.572 692.171 262.797 695.354 256.545L709.222 263.252C703.766 272.687 694.217 281.894 676.939 281.894ZM770.778 280.53V248.702H734.971V280.53H718.83V204.711H734.971V234.493H770.778V204.711H787.033V280.53H770.778ZM799.815 280.53V267.799C830.848 244.951 839.942 237.107 839.942 227.786C839.942 221.193 833.917 217.897 827.552 217.897C819.026 217.897 812.433 221.307 807.318 226.649L798.11 215.964C805.499 207.439 816.753 203.574 827.324 203.574C843.466 203.574 856.311 212.668 856.311 227.786C856.311 240.745 845.625 251.998 825.278 266.321H856.879V280.53H799.815ZM868.202 270.527L877.068 259.615C882.297 264.957 889.345 267.799 897.302 267.799C906.282 267.799 911.397 262.684 911.397 256.432C911.397 249.498 906.396 244.837 897.757 244.837C891.505 244.837 886.389 246.77 881.843 251.089L870.589 248.02V204.711H922.651V218.579H886.389V237.562C890.368 234.038 896.506 231.31 903.44 231.31C916.285 231.31 927.766 240.404 927.766 255.75C927.766 271.777 915.717 281.894 897.416 281.894C884.23 281.894 874.681 277.575 868.202 270.527Z" fill="#0A2647"/>
<path d="M75.9782 341.53H73.6802V317.163H65.0427V315.103H84.6157V317.163H75.9782V341.53ZM104.286 341.53H87.526V315.103H104.286V317.163H89.7844V326.95H104.009V329.01H89.7844V339.47H104.286V341.53ZM120.509 342.006C116.705 342.006 113.522 340.738 110.96 338.202C108.398 335.64 107.117 332.351 107.117 328.336C107.117 324.321 108.398 321.046 110.96 318.51C113.522 315.948 116.705 314.667 120.509 314.667C124.418 314.667 127.628 316.225 130.137 319.342L128.235 320.571C127.39 319.408 126.281 318.484 124.907 317.797C123.533 317.084 122.067 316.727 120.509 316.727C117.366 316.727 114.737 317.81 112.624 319.976C110.538 322.142 109.494 324.929 109.494 328.336C109.494 331.717 110.538 334.504 112.624 336.696C114.737 338.862 117.366 339.945 120.509 339.945C122.067 339.945 123.533 339.602 124.907 338.915C126.281 338.202 127.39 337.264 128.235 336.102L130.137 337.291C127.601 340.434 124.392 342.006 120.509 342.006ZM154.262 341.53H151.964V328.97H135.204V341.53H132.945V315.103H135.204V326.91H151.964V315.103H154.262V341.53ZM180.139 341.53H177.92L161.279 318.827V341.53H159.021V315.103H161.319L177.881 337.489V315.103H180.139V341.53ZM196.789 342.006C192.959 342.006 189.855 340.711 187.478 338.123C185.127 335.534 183.952 332.272 183.952 328.336C183.952 324.401 185.127 321.138 187.478 318.55C189.855 315.961 192.959 314.667 196.789 314.667C200.593 314.667 203.683 315.961 206.06 318.55C208.438 321.138 209.626 324.401 209.626 328.336C209.626 332.272 208.438 335.534 206.06 338.123C203.683 340.711 200.593 342.006 196.789 342.006ZM196.789 339.945C199.906 339.945 202.428 338.862 204.357 336.696C206.285 334.504 207.249 331.717 207.249 328.336C207.249 324.929 206.285 322.142 204.357 319.976C202.455 317.81 199.932 316.727 196.789 316.727C193.619 316.727 191.083 317.81 189.182 319.976C187.28 322.142 186.329 324.929 186.329 328.336C186.329 331.717 187.28 334.504 189.182 336.696C191.083 338.862 193.619 339.945 196.789 339.945ZM228.473 341.53H213.417V315.103H215.675V339.47H228.473V341.53ZM241.976 342.006C238.146 342.006 235.042 340.711 232.665 338.123C230.314 335.534 229.139 332.272 229.139 328.336C229.139 324.401 230.314 321.138 232.665 318.55C235.042 315.961 238.146 314.667 241.976 314.667C245.78 314.667 248.87 315.961 251.247 318.55C253.625 321.138 254.813 324.401 254.813 328.336C254.813 332.272 253.625 335.534 251.247 338.123C248.87 340.711 245.78 342.006 241.976 342.006ZM241.976 339.945C245.093 339.945 247.615 338.862 249.544 336.696C251.472 334.504 252.436 331.717 252.436 328.336C252.436 324.929 251.472 322.142 249.544 319.976C247.642 317.81 245.119 316.727 241.976 316.727C238.806 316.727 236.271 317.81 234.369 319.976C232.467 322.142 231.516 324.929 231.516 328.336C231.516 331.717 232.467 334.504 234.369 336.696C236.271 338.862 238.806 339.945 241.976 339.945ZM271.006 342.045C267.228 342.045 264.045 340.764 261.457 338.202C258.895 335.64 257.613 332.351 257.613 328.336C257.613 324.321 258.895 321.046 261.457 318.51C264.045 315.948 267.228 314.667 271.006 314.667C275.02 314.667 278.335 316.173 280.95 319.184L279.247 320.412C278.296 319.276 277.094 318.378 275.641 317.718C274.215 317.057 272.67 316.727 271.006 316.727C267.862 316.727 265.234 317.81 263.121 319.976C261.034 322.142 259.991 324.929 259.991 328.336C259.991 331.717 261.034 334.504 263.121 336.696C265.234 338.889 267.862 339.985 271.006 339.985C272.617 339.985 274.096 339.668 275.443 339.034C276.79 338.4 277.9 337.647 278.771 336.776V330.436H268.787V328.416H281.03V337.647C278.415 340.579 275.073 342.045 271.006 342.045ZM294.899 341.53H292.601V330.238L282.102 315.103H284.836L293.75 328.099L302.665 315.103H305.399L294.899 330.238V341.53ZM325.01 341.53H322.712V317.163H314.074V315.103H333.647V317.163H325.01V341.53ZM357.874 341.53H355.576V328.97H338.816V341.53H336.558V315.103H338.816V326.91H355.576V315.103H357.874V341.53ZM384.386 341.53H381.771L379.156 335.032H365.169L362.554 341.53H359.939L370.756 315.103H373.569L384.386 341.53ZM378.403 332.972L372.143 317.52L365.922 332.972H378.403ZM392.79 341.53H390.492V317.163H381.855V315.103H401.428V317.163H392.79V341.53ZM429.569 341.53H412.809V315.103H429.569V317.163H415.067V326.95H429.291V329.01H415.067V339.47H429.569V341.53ZM458.114 341.53H455.816V318.193L446.188 341.53H445.316L435.649 318.193V341.53H433.39V315.103H436.758L445.752 336.895L454.707 315.103H458.114V341.53ZM465.168 341.53H462.91V315.103H472.815C475.272 315.103 477.213 315.856 478.64 317.361C480.066 318.84 480.779 320.663 480.779 322.829C480.779 324.995 480.053 326.831 478.6 328.336C477.174 329.816 475.245 330.555 472.815 330.555H465.168V341.53ZM472.577 328.495C474.321 328.495 475.721 327.967 476.777 326.91C477.86 325.853 478.402 324.493 478.402 322.829C478.402 321.165 477.86 319.805 476.777 318.748C475.721 317.691 474.321 317.163 472.577 317.163H465.168V328.495H472.577ZM495.609 342.006C491.779 342.006 488.675 340.711 486.298 338.123C483.947 335.534 482.772 332.272 482.772 328.336C482.772 324.401 483.947 321.138 486.298 318.55C488.675 315.961 491.779 314.667 495.609 314.667C499.413 314.667 502.503 315.961 504.88 318.55C507.258 321.138 508.446 324.401 508.446 328.336C508.446 332.272 507.258 335.534 504.88 338.123C502.503 340.711 499.413 342.006 495.609 342.006ZM495.609 339.945C498.726 339.945 501.248 338.862 503.177 336.696C505.105 334.504 506.069 331.717 506.069 328.336C506.069 324.929 505.105 322.142 503.177 319.976C501.275 317.81 498.752 316.727 495.609 316.727C492.439 316.727 489.904 317.81 488.002 319.976C486.1 322.142 485.149 324.929 485.149 328.336C485.149 331.717 486.1 334.504 488.002 336.696C489.904 338.862 492.439 339.945 495.609 339.945ZM534.245 341.53H531.71L525.37 318.827L519.031 341.53H516.495L508.927 315.103H511.463L517.842 338.361L524.34 315.103H526.4L532.859 338.361L539.238 315.103H541.774L534.245 341.53ZM560.799 341.53H544.039V315.103H560.799V317.163H546.298V326.95H560.522V329.01H546.298V339.47H560.799V341.53ZM582.847 341.53H580.113L572.704 330.595H566.879V341.53H564.621V315.103H574.487C576.811 315.103 578.726 315.803 580.232 317.203C581.764 318.603 582.53 320.478 582.53 322.829C582.53 325.127 581.817 326.95 580.39 328.297C578.99 329.644 577.26 330.357 575.2 330.436L582.847 341.53ZM574.288 328.534C576.032 328.534 577.445 328.006 578.528 326.95C579.611 325.867 580.152 324.493 580.152 322.829C580.152 321.165 579.611 319.805 578.528 318.748C577.445 317.691 576.032 317.163 574.288 317.163H566.879V328.534H574.288ZM594.565 342.006C590.418 342.006 587.195 340.606 584.897 337.806L586.363 336.102C588.555 338.664 591.303 339.945 594.604 339.945C597.061 339.945 598.831 339.417 599.914 338.361C601.023 337.278 601.578 336.049 601.578 334.676C601.578 333.619 601.287 332.734 600.706 332.021C600.125 331.282 599.359 330.714 598.408 330.317C597.484 329.921 596.453 329.565 595.318 329.248C594.208 328.931 593.086 328.6 591.95 328.257C590.84 327.887 589.81 327.465 588.859 326.989C587.935 326.487 587.182 325.801 586.601 324.929C586.02 324.031 585.729 322.961 585.729 321.72C585.729 319.606 586.561 317.903 588.225 316.608C589.889 315.314 591.95 314.667 594.406 314.667C598.184 314.667 601.168 315.908 603.361 318.391L601.855 320.055C600.006 317.837 597.484 316.727 594.287 316.727C592.518 316.727 591.038 317.189 589.85 318.114C588.688 319.012 588.106 320.174 588.106 321.601C588.106 322.499 588.397 323.278 588.978 323.938C589.559 324.572 590.312 325.074 591.237 325.444C592.187 325.787 593.218 326.118 594.327 326.435C595.463 326.725 596.585 327.068 597.695 327.465C598.831 327.834 599.861 328.284 600.785 328.812C601.736 329.34 602.502 330.093 603.083 331.07C603.664 332.021 603.955 333.17 603.955 334.517C603.955 336.525 603.202 338.281 601.697 339.787C600.191 341.266 597.814 342.006 594.565 342.006ZM626.177 341.53H623.878V330.238L613.379 315.103H616.113L625.028 328.099L633.942 315.103H636.676L626.177 330.238V341.53ZM649.043 342.006C645.213 342.006 642.109 340.711 639.732 338.123C637.381 335.534 636.206 332.272 636.206 328.336C636.206 324.401 637.381 321.138 639.732 318.55C642.109 315.961 645.213 314.667 649.043 314.667C652.847 314.667 655.937 315.961 658.314 318.55C660.692 321.138 661.88 324.401 661.88 328.336C661.88 332.272 660.692 335.534 658.314 338.123C655.937 340.711 652.847 342.006 649.043 342.006ZM649.043 339.945C652.16 339.945 654.683 338.862 656.611 336.696C658.539 334.504 659.503 331.717 659.503 328.336C659.503 324.929 658.539 322.142 656.611 319.976C654.709 317.81 652.186 316.727 649.043 316.727C645.873 316.727 643.338 317.81 641.436 319.976C639.534 322.142 638.583 324.929 638.583 328.336C638.583 331.717 639.534 334.504 641.436 336.696C643.338 338.862 645.873 339.945 649.043 339.945ZM675.973 342.006C672.644 342.006 670.095 341.068 668.326 339.193C666.556 337.291 665.671 334.689 665.671 331.387V315.103H667.969V331.348C667.969 334.042 668.656 336.155 670.029 337.687C671.429 339.193 673.41 339.945 675.973 339.945C678.561 339.945 680.542 339.193 681.916 337.687C683.289 336.181 683.976 334.068 683.976 331.348V315.103H686.274V331.387C686.274 334.715 685.389 337.317 683.62 339.193C681.876 341.068 679.327 342.006 675.973 342.006ZM709.276 341.53H706.542L699.133 330.595H693.309V341.53H691.05V315.103H700.916C703.241 315.103 705.156 315.803 706.661 317.203C708.193 318.603 708.959 320.478 708.959 322.829C708.959 325.127 708.246 326.95 706.82 328.297C705.42 329.644 703.69 330.357 701.629 330.436L709.276 341.53ZM700.718 328.534C702.461 328.534 703.875 328.006 704.958 326.95C706.041 325.867 706.582 324.493 706.582 322.829C706.582 321.165 706.041 319.805 704.958 318.748C703.875 317.691 702.461 317.163 700.718 317.163H693.309V328.534H700.718ZM732.357 341.53H721.263V315.103H732.12C734.338 315.103 736.108 315.71 737.429 316.925C738.75 318.14 739.41 319.778 739.41 321.838C739.41 323.423 738.948 324.77 738.023 325.88C737.125 326.963 736.042 327.636 734.774 327.9C736.174 328.112 737.376 328.865 738.38 330.159C739.41 331.427 739.925 332.84 739.925 334.398C739.925 336.591 739.251 338.334 737.904 339.628C736.557 340.896 734.708 341.53 732.357 341.53ZM731.842 326.95C733.48 326.95 734.748 326.501 735.646 325.602C736.57 324.678 737.033 323.503 737.033 322.076C737.033 320.676 736.57 319.514 735.646 318.589C734.748 317.639 733.48 317.163 731.842 317.163H723.522V326.95H731.842ZM732.001 339.47C733.744 339.47 735.104 339.008 736.082 338.083C737.059 337.132 737.548 335.851 737.548 334.24C737.548 332.787 737.059 331.559 736.082 330.555C735.104 329.525 733.744 329.01 732.001 329.01H723.522V339.47H732.001ZM754.12 342.006C750.791 342.006 748.242 341.068 746.473 339.193C744.703 337.291 743.818 334.689 743.818 331.387V315.103H746.116V331.348C746.116 334.042 746.803 336.155 748.176 337.687C749.576 339.193 751.557 339.945 754.12 339.945C756.708 339.945 758.689 339.193 760.063 337.687C761.436 336.181 762.123 334.068 762.123 331.348V315.103H764.421V331.387C764.421 334.715 763.536 337.317 761.767 339.193C760.023 341.068 757.474 342.006 754.12 342.006ZM777.399 342.006C773.252 342.006 770.03 340.606 767.732 337.806L769.198 336.102C771.39 338.664 774.137 339.945 777.439 339.945C779.895 339.945 781.665 339.417 782.748 338.361C783.858 337.278 784.412 336.049 784.412 334.676C784.412 333.619 784.122 332.734 783.541 332.021C782.959 331.282 782.193 330.714 781.242 330.317C780.318 329.921 779.288 329.565 778.152 329.248C777.043 328.931 775.92 328.6 774.784 328.257C773.675 327.887 772.645 327.465 771.694 326.989C770.769 326.487 770.016 325.801 769.435 324.929C768.854 324.031 768.564 322.961 768.564 321.72C768.564 319.606 769.396 317.903 771.06 316.608C772.724 315.314 774.784 314.667 777.241 314.667C781.018 314.667 784.003 315.908 786.195 318.391L784.69 320.055C782.841 317.837 780.318 316.727 777.122 316.727C775.352 316.727 773.873 317.189 772.684 318.114C771.522 319.012 770.941 320.174 770.941 321.601C770.941 322.499 771.231 323.278 771.813 323.938C772.394 324.572 773.147 325.074 774.071 325.444C775.022 325.787 776.052 326.118 777.161 326.435C778.297 326.725 779.42 327.068 780.529 327.465C781.665 327.834 782.695 328.284 783.62 328.812C784.571 329.34 785.337 330.093 785.918 331.07C786.499 332.021 786.79 333.17 786.79 334.517C786.79 336.525 786.037 338.281 784.531 339.787C783.025 341.266 780.648 342.006 777.399 342.006ZM792.695 341.53H790.437V315.103H792.695V341.53ZM818.594 341.53H816.375L799.734 318.827V341.53H797.476V315.103H799.774L816.336 337.489V315.103H818.594V341.53ZM840.157 341.53H823.397V315.103H840.157V317.163H825.655V326.95H839.879V329.01H825.655V339.47H840.157V341.53ZM852.18 342.006C848.033 342.006 844.81 340.606 842.512 337.806L843.978 336.102C846.171 338.664 848.918 339.945 852.22 339.945C854.676 339.945 856.446 339.417 857.529 338.361C858.638 337.278 859.193 336.049 859.193 334.676C859.193 333.619 858.902 332.734 858.321 332.021C857.74 331.282 856.974 330.714 856.023 330.317C855.099 329.921 854.069 329.565 852.933 329.248C851.823 328.931 850.701 328.6 849.565 328.257C848.456 327.887 847.425 327.465 846.474 326.989C845.55 326.487 844.797 325.801 844.216 324.929C843.635 324.031 843.344 322.961 843.344 321.72C843.344 319.606 844.176 317.903 845.841 316.608C847.505 315.314 849.565 314.667 852.021 314.667C855.799 314.667 858.784 315.908 860.976 318.391L859.47 320.055C857.621 317.837 855.099 316.727 851.903 316.727C850.133 316.727 848.654 317.189 847.465 318.114C846.303 319.012 845.722 320.174 845.722 321.601C845.722 322.499 846.012 323.278 846.593 323.938C847.174 324.572 847.927 325.074 848.852 325.444C849.803 325.787 850.833 326.118 851.942 326.435C853.078 326.725 854.201 327.068 855.31 327.465C856.446 327.834 857.476 328.284 858.401 328.812C859.351 329.34 860.117 330.093 860.699 331.07C861.28 332.021 861.57 333.17 861.57 334.517C861.57 336.525 860.817 338.281 859.312 339.787C857.806 341.266 855.429 342.006 852.18 342.006ZM873.419 342.006C869.272 342.006 866.05 340.606 863.752 337.806L865.218 336.102C867.41 338.664 870.157 339.945 873.459 339.945C875.916 339.945 877.685 339.417 878.768 338.361C879.878 337.278 880.432 336.049 880.432 334.676C880.432 333.619 880.142 332.734 879.561 332.021C878.98 331.282 878.214 330.714 877.263 330.317C876.338 329.921 875.308 329.565 874.172 329.248C873.063 328.931 871.94 328.6 870.804 328.257C869.695 327.887 868.665 327.465 867.714 326.989C866.789 326.487 866.037 325.801 865.455 324.929C864.874 324.031 864.584 322.961 864.584 321.72C864.584 319.606 865.416 317.903 867.08 316.608C868.744 315.314 870.804 314.667 873.261 314.667C877.038 314.667 880.023 315.908 882.215 318.391L880.71 320.055C878.861 317.837 876.338 316.727 873.142 316.727C871.372 316.727 869.893 317.189 868.704 318.114C867.542 319.012 866.961 320.174 866.961 321.601C866.961 322.499 867.252 323.278 867.833 323.938C868.414 324.572 869.167 325.074 870.091 325.444C871.042 325.787 872.072 326.118 873.182 326.435C874.317 326.725 875.44 327.068 876.549 327.465C877.685 327.834 878.715 328.284 879.64 328.812C880.591 329.34 881.357 330.093 881.938 331.07C882.519 332.021 882.81 333.17 882.81 334.517C882.81 336.525 882.057 338.281 880.551 339.787C879.046 341.266 876.668 342.006 873.419 342.006Z" fill="#0A2647"/>
</svg>
