<svg width="101" height="20" viewBox="0 0 101 20" fill="none" xmlns="http://www.w3.org/2000/svg">
<path fill-rule="evenodd" clip-rule="evenodd" d="M20 20V0H0L7.31956 7.31957H12.6804V12.6804L20 20Z" fill="#102251"/>
<path fill-rule="evenodd" clip-rule="evenodd" d="M21.9268 20V0H41.9268L34.6072 7.31957H29.2463V12.6804L21.9268 20Z" fill="#102251"/>
<path d="M59.62 16H56.18V5.66H52.44V2.66H63.34V5.66H59.62V16ZM71.3973 16H67.9573V5.66H64.2173V2.66H75.1173V5.66H71.3973V16Z" fill="#102251"/>
<path d="M86.8947 16H76.4347V13.32C82.2147 9.14 83.2947 8.22 83.2947 6.9C83.2947 5.98 82.4347 5.5 81.4547 5.5C79.9747 5.5 78.8547 6.06 77.8947 6.96L75.9947 4.68C77.4147 3.12 79.5347 2.46 81.3947 2.46C84.5347 2.46 86.7947 4.22 86.7947 6.9C86.7947 8.94 85.3347 10.68 82.0147 13H86.8947V16ZM93.8831 16.24C91.5231 16.24 89.7431 15.52 88.5031 14.3L90.3831 11.9C91.3031 12.74 92.5631 13.2 93.8431 13.2C95.3031 13.2 96.0231 12.48 96.0231 11.66C96.0231 10.76 95.3231 10.12 93.9431 10.12C92.8831 10.12 92.0431 10.42 91.3031 11.12L88.9231 10.54V2.66H98.6031V5.66H92.3631V8.24C93.0031 7.62 94.0431 7.18 95.2231 7.18C97.4831 7.18 99.5231 8.84 99.5231 11.52C99.5231 14.4 97.3431 16.24 93.8831 16.24Z" fill="#12D4FF"/>
</svg>
